HIERARCHY
ROOT hip
{
  OFFSET 0 0 0
  CHANNELS 6 Xposition Yposition Zposition Zrotation Xrotation Yrotation
  JOINT abdomen
  {
    OFFSET 0 7.2397 0
    CHANNELS 6 Xposition Yposition Zposition Zrotation Xrotation Yrotation
    JOINT chest
    {
      OFFSET 0 16.5459 0
      CHANNELS 6 Xposition Yposition Zposition Zrotation Xrotation Yrotation
      JOINT neck
      {
        OFFSET 0 34.2149 0
        CHANNELS 6 Xposition Yposition Zposition Zrotation Xrotation Yrotation
        End Site
        {
          OFFSET 0 6.2923 0
        }
      }
      JOINT lCollar
      {
        OFFSET 4.0639 26.6115 -1.1234
        CHANNELS 6 Xposition Yposition Zposition Zrotation Xrotation Yrotation
        JOINT lShldr
        {
          OFFSET 14.1772 0 0
          CHANNELS 6 Xposition Yposition Zposition Zrotation Xrotation Yrotation
          JOINT lForeArm
          {
            OFFSET 26.1234 0 0
            CHANNELS 6 Xposition Yposition Zposition Zrotation Xrotation Yrotation
            JOINT lHand
            {
              OFFSET 27.7188 0 0
              CHANNELS 6 Xposition Yposition Zposition Zrotation Xrotation Yrotation
              JOINT lThumb1
              {
                OFFSET 2.2979 -0.4685 1.8313
                CHANNELS 6 Xposition Yposition Zposition Zrotation Xrotation Yrotation
                JOINT lThumb2
                {
                  OFFSET 5.2953 0 0
                  CHANNELS 6 Xposition Yposition Zposition Zrotation Xrotation Yrotation
                  End Site
                  {
                    OFFSET 3.0181 0 0
                  }
                }
              }
              JOINT lIndex1
              {
                OFFSET 9.3793 0.299 2.5924
                CHANNELS 6 Xposition Yposition Zposition Zrotation Xrotation Yrotation
                JOINT lIndex2
                {
                  OFFSET 4.3461 0 0
                  CHANNELS 6 Xposition Yposition Zposition Zrotation Xrotation Yrotation
                  End Site
                  {
                    OFFSET 2.1666 0 0
                  }
                }
              }
              JOINT lMid1
              {
                OFFSET 9.4769 0.8376 0.2947
                CHANNELS 6 Xposition Yposition Zposition Zrotation Xrotation Yrotation
                JOINT lMid2
                {
                  OFFSET 4.7721 0 0
                  CHANNELS 6 Xposition Yposition Zposition Zrotation Xrotation Yrotation
                  End Site
                  {
                    OFFSET 2.8722 0 0
                  }
                }
              }
              JOINT lRing1
              {
                OFFSET 8.6586 1.0176 -1.7016
                CHANNELS 6 Xposition Yposition Zposition Zrotation Xrotation Yrotation
                JOINT lRing2
                {
                  OFFSET 4.5461 0 0
                  CHANNELS 6 Xposition Yposition Zposition Zrotation Xrotation Yrotation
                  End Site
                  {
                    OFFSET 2.506 0 0
                  }
                }
              }
              JOINT lPinky1
              {
                OFFSET 7.69 0.6618 -3.9096
                CHANNELS 6 Xposition Yposition Zposition Zrotation Xrotation Yrotation
                JOINT lPinky2
                {
                  OFFSET 3.2119 0 0
                  CHANNELS 6 Xposition Yposition Zposition Zrotation Xrotation Yrotation
                  End Site
                  {
                    OFFSET 1.924 0 0
                  }
                }
              }
            }
          }
        }
      }
      JOINT rCollar
      {
        OFFSET -4.0677 26.6109 -1.1234
        CHANNELS 6 Xposition Yposition Zposition Zrotation Xrotation Yrotation
        JOINT rShldr
        {
          OFFSET -14.1772 0 0
          CHANNELS 6 Xposition Yposition Zposition Zrotation Xrotation Yrotation
          JOINT rForeArm
          {
            OFFSET -26.1234 0 0
            CHANNELS 6 Xposition Yposition Zposition Zrotation Xrotation Yrotation
            JOINT rHand
            {
              OFFSET -27.7188 0 0
              CHANNELS 6 Xposition Yposition Zposition Zrotation Xrotation Yrotation
              JOINT rThumb1
              {
                OFFSET -2.2979 -0.4684 1.8313
                CHANNELS 6 Xposition Yposition Zposition Zrotation Xrotation Yrotation
                JOINT rThumb2
                {
                  OFFSET -5.2953 0 0
                  CHANNELS 6 Xposition Yposition Zposition Zrotation Xrotation Yrotation
                  End Site
                  {
                    OFFSET -3.0181 0 0
                  }
                }
              }
              JOINT rIndex1
              {
                OFFSET -9.3793 0.2991 2.5924
                CHANNELS 6 Xposition Yposition Zposition Zrotation Xrotation Yrotation
                JOINT rIndex2
                {
                  OFFSET -4.3461 0 0
                  CHANNELS 6 Xposition Yposition Zposition Zrotation Xrotation Yrotation
                  End Site
                  {
                    OFFSET -2.1666 0 0
                  }
                }
              }
              JOINT rMid1
              {
                OFFSET -9.4769 0.8376 0.2947
                CHANNELS 6 Xposition Yposition Zposition Zrotation Xrotation Yrotation
                JOINT rMid2
                {
                  OFFSET -4.7721 0 0
                  CHANNELS 6 Xposition Yposition Zposition Zrotation Xrotation Yrotation
                  End Site
                  {
                    OFFSET -2.8722 0 0
                  }
                }
              }
              JOINT rRing1
              {
                OFFSET -8.6586 1.0176 -1.7016
                CHANNELS 6 Xposition Yposition Zposition Zrotation Xrotation Yrotation
                JOINT rRing2
                {
                  OFFSET -4.5461 0 0
                  CHANNELS 6 Xposition Yposition Zposition Zrotation Xrotation Yrotation
                  End Site
                  {
                    OFFSET -2.506 0 0
                  }
                }
              }
              JOINT rPinky1
              {
                OFFSET -7.69 0.6618 -3.9096
                CHANNELS 6 Xposition Yposition Zposition Zrotation Xrotation Yrotation
                JOINT rPinky2
                {
                  OFFSET -3.2119 0 0
                  CHANNELS 6 Xposition Yposition Zposition Zrotation Xrotation Yrotation
                  End Site
                  {
                    OFFSET -1.924 0 0
                  }
                }
              }
            }
          }
        }
      }
    }
  }
  JOINT lThigh
  {
    OFFSET 8.7379 -0.0029 0.0005
    CHANNELS 6 Xposition Yposition Zposition Zrotation Xrotation Yrotation
    JOINT lShin
    {
      OFFSET 0 -46.6502 1.2741
      CHANNELS 6 Xposition Yposition Zposition Zrotation Xrotation Yrotation
      JOINT lFoot
      {
        OFFSET 0 -40.1476 0
        CHANNELS 6 Xposition Yposition Zposition Zrotation Xrotation Yrotation
        End Site
        {
          OFFSET 0 -8.8766 14.2344
        }
      }
    }
  }
  JOINT rThigh
  {
    OFFSET -8.7379 0.0029 -0.0005
    CHANNELS 6 Xposition Yposition Zposition Zrotation Xrotation Yrotation
    JOINT rShin
    {
      OFFSET 0 -46.6502 1.2741
      CHANNELS 6 Xposition Yposition Zposition Zrotation Xrotation Yrotation
      JOINT rFoot
      {
        OFFSET 0 -40.1476 0
        CHANNELS 6 Xposition Yposition Zposition Zrotation Xrotation Yrotation
        End Site
        {
          OFFSET 0 -8.8766 14.2344
        }
      }
    }
  }
}
MOTION
Frames:	4
Frame Time:	0.0333333
-0.240055 89.6833 0.190374 -3.11893 -3.31396 -43.3143 -4.16334e-17 7.2397 -8.88178e-16 -1.87609 6.96106 8.00871 0 16.5459 -8.88178e-16 -4.68089 15.5122 16.4777 -1.11022e-15 34.2149 0 0.82292 26.8719 -1.4329 4.0639 26.6115 -1.1234 -1.67533 -3.43236 4.166 14.1772 2.84217e-14 3.55271e-15 -69.6994 -1.29337 -3.24542 26.1234 0 0 3.37936 5.756 -48.0545 27.7188 1.42109e-14 7.10543e-15 14.078 12.1059 -1.83621 2.2979 -0.4685 1.8313 -32.8653 1.23136 -15.9257 5.2953 0 -7.10543e-15 0.822564 3.01886 -0.260373 9.3793 0.299 2.5924 -100.475 -81.3573 -101.115 4.3461 0 0 2.39164 0.528198 16.2459 9.4769 0.8376 0.2947 106.978 -79.7986 115.117 4.7721 -7.10543e-15 1.42109e-14 1.64978 0.250226 21.8679 8.6586 1.0176 -1.7016 74.9436 -74.8975 99.9372 4.5461 -3.55271e-15 0 -1.64492 -0.267401 32.0687 7.69 0.6618 -3.9096 102.574 -65.8296 128.763 3.2119 0 0 2.71203 2.34018 39.5395 -4.0677 26.6109 -1.1234 5.1499 -2.73522 4.26975 -14.1772 2.84217e-14 3.55271e-15 61.2579 -12.0882 -21.3762 -26.1234 1.42109e-14 0 6.56068 -1.0482 42.1904 -27.7188 -1.42109e-14 3.55271e-15 17.4121 5.73539 8.30914 -2.2979 -0.4684 1.8313 28.6001 -12.9525 26.6262 -5.2953 -1.77636e-15 -1.42109e-14 -6.60771 3.89658 -19.6502 -9.3793 0.2991 2.5924 172.708 -87.5262 173.308 -4.3461 -3.55271e-15 0 -2.74865 0.656372 -16.7292 -9.4769 0.8376 0.2947 -152.113 -84.4472 -159.489 -4.7721 7.10543e-15 0 -2.5795 0.634301 -30.5007 -8.6586 1.0176 -1.7016 -56.8845 -81.8812 -72.9048 -4.5461 1.77636e-15 7.10543e-15 2.55511 -0.585205 -37.4921 -7.69 0.6618 -3.9096 -113.303 -75.7753 -130.489 -3.2119 0 0 -0.963091 1.85241 -41.6674 8.7379 -0.0029 0.0005 14.2528 -21.7146 20.2825 0 -46.6502 1.2741 7.25561 37.4398 -16.7391 0 -40.1476 0 -7.89771 -10.2723 7.22814 -8.7379 0.0029 -0.0005 -14.4201 0.819117 -22.5906 0 -46.6502 1.2741 -4.58199 37.0725 -7.87084 0 -40.1476 1.77636e-15 20.9758 -23.7886 -3.40776 
-0.22758 89.6851 0.19513 -3.06603 -3.29256 -43.4532 5.55112e-17 7.2397 0 -1.91072 6.94309 8.01713 -4.44089e-16 16.5459 8.88178e-16 -4.74059 15.4717 16.4996 4.44089e-16 34.2149 -1.42109e-14 0.790564 26.7878 -1.45819 4.0639 26.6115 -1.1234 -1.67826 -3.42971 4.1533 14.1772 2.84217e-14 -7.10543e-15 -69.6483 -1.28931 -3.23077 26.1234 -7.10543e-15 0 3.38834 5.77829 -48.106 27.7188 0 0 14.0563 12.112 -1.83282 2.2979 -0.4685 1.8313 -32.7551 1.22731 -15.5126 5.2953 0 1.42109e-14 0.945852 3.01471 0.135436 9.3793 0.299 2.5924 -100.419 -81.3995 -100.715 4.3461 -7.10543e-15 -1.42109e-14 2.38351 0.525354 16.6378 9.4769 0.8376 0.2947 106.914 -79.7746 115.432 4.7721 0 0 1.6631 0.257616 22.227 8.6586 1.0176 -1.7016 74.9553 -74.9147 100.297 4.5461 0 -1.42109e-14 -1.6616 -0.277959 32.4627 7.69 0.6618 -3.9096 102.493 -65.7757 129.047 3.2119 -3.55271e-15 0 2.77039 2.38846 39.8903 -4.0677 26.6109 -1.1234 5.1812 -2.74405 4.33011 -14.1772 2.84217e-14 -7.10543e-15 61.252 -12.042 -21.3302 -26.1234 0 7.10543e-15 6.56802 -1.01366 42.04 -27.7188 -1.42109e-14 0 17.2381 5.71535 8.25682 -2.2979 -0.4684 1.8313 28.8261 -12.6525 26.4552 -5.2953 3.55271e-15 -1.42109e-14 -6.67923 3.90377 -19.6323 -9.3793 0.2991 2.5924 172.57 -87.5272 173.373 -4.3461 -3.55271e-15 -7.10543e-15 -2.74874 0.656437 -16.6535 -9.4769 0.8376 0.2947 -152.098 -84.4468 -159.264 -4.7721 3.55271e-15 -7.10543e-15 -2.56386 0.625121 -30.2965 -8.6586 1.0176 -1.7016 -56.9541 -81.8532 -72.8075 -4.5461 3.55271e-15 0 2.54169 -0.574962 -37.2608 -7.69 0.6618 -3.9096 -113.345 -75.789 -130.325 -3.2119 -1.77636e-15 0 -0.936673 1.83674 -41.4637 8.7379 -0.0029 0.0005 14.2109 -21.716 20.2613 0 -46.6502 1.2741 7.29341 37.4219 -16.5883 -3.55271e-15 -40.1476 0 -7.99036 -10.2907 7.21981 -8.7379 0.0029 -0.0005 -14.4311 0.694396 -22.61 3.55271e-15 -46.6502 1.2741 -4.75039 37.0862 -7.67211 -3.55271e-15 -40.1476 2.22045e-15 20.9987 -23.7754 -3.4063 
-0.211527 89.6886 0.192852 -2.99154 -3.25451 -43.5822 -2.77556e-17 7.2397 0 -1.93533 6.92851 7.98489 0 16.5459 -8.88178e-16 -4.77716 15.4407 16.4371 0 34.2149 7.10543e-15 0.668087 26.7325 -1.36763 4.0639 26.6115 -1.1234 -1.7079 -3.42949 4.13945 14.1772 2.84217e-14 0 -69.6162 -1.28813 -3.17495 26.1234 7.10543e-15 0 3.3898 5.78848 -48.1667 27.7188 0 0 14.014 12.1047 -1.83599 2.2979 -0.4685 1.8313 -32.6215 1.20869 -15.1627 5.2953 0 -7.10543e-15 1.06882 3.01117 0.573362 9.3793 0.299 2.5924 -100.402 -81.4393 -100.37 4.3461 0 0 2.37658 0.523178 16.9706 9.4769 0.8376 0.2947 106.853 -79.7518 115.732 4.7721 0 0 1.67484 0.264325 22.5486 8.6586 1.0176 -1.7016 74.9697 -74.9309 100.704 4.5461 3.55271e-15 -1.42109e-14 -1.67195 -0.285931 32.7889 7.69 0.6618 -3.9096 102.427 -65.7402 129.34 3.2119 0 -7.10543e-15 2.822 2.43158 40.2021 -4.0677 26.6109 -1.1234 5.16578 -2.74237 4.37743 -14.1772 0 7.10543e-15 61.2942 -12.0363 -21.254 -26.1234 0 7.10543e-15 6.54744 -1.01693 41.8165 -27.7188 0 -1.77636e-15 17.0871 5.78326 8.09918 -2.2979 -0.4684 1.8313 28.946 -12.5261 26.2596 -5.2953 -7.10543e-15 0 -6.6518 3.90793 -19.6386 -9.3793 0.2991 2.5924 172.427 -87.5284 173.453 -4.3461 0 0 -2.74916 0.65669 -16.4533 -9.4769 0.8376 0.2947 -152.392 -84.4575 -159.313 -4.7721 0 0 -2.54797 0.615864 -30.0891 -8.6586 1.0176 -1.7016 -57.0092 -81.8401 -72.598 -4.5461 -1.77636e-15 0 2.52943 -0.564493 -37.0104 -7.69 0.6618 -3.9096 -113.403 -75.8093 -130.143 -3.2119 0 0 -0.907408 1.81527 -41.2263 8.7379 -0.0029 0.0005 14.1744 -21.7512 20.2456 1.77636e-15 -46.6502 1.2741 7.31272 37.3919 -16.4383 0 -40.1476 -1.77636e-15 -8.07798 -10.2948 7.20808 -8.7379 0.0029 -0.0005 -14.4382 0.542449 -22.6083 0 -46.6502 1.2741 -4.91084 37.0952 -7.51937 0 -40.1476 0 21.0277 -23.7678 -3.40444 
-0.199419 89.6797 0.191518 -2.94553 -3.22015 -43.6472 -8.32667e-17 7.2397 0 -1.94328 6.93256 7.89931 -4.44089e-16 16.5459 -8.88178e-16 -4.78631 15.4504 16.2663 -6.66134e-16 34.2149 7.10543e-15 0.541208 26.6412 -1.20092 4.0639 26.6115 -1.1234 -1.70893 -3.42856 4.13473 14.1772 2.84217e-14 -3.55271e-15 -69.6084 -1.28902 -3.14897 26.1234 0 -7.10543e-15 3.40015 5.78847 -48.2572 27.7188 0 7.10543e-15 13.9498 12.1002 -1.81006 2.2979 -0.4685 1.8313 -32.4586 1.09799 -14.7883 5.2953 -7.10543e-15 7.10543e-15 1.15258 3.00703 1.11022 9.3793 0.299 2.5924 -100.413 -81.4495 -100.061 4.3461 7.10543e-15 -1.42109e-14 2.37058 0.521465 17.2559 9.4769 0.8376 0.2947 106.801 -79.7329 115.981 4.7721 0 0 1.6854 0.270495 22.8399 8.6586 1.0176 -1.7016 74.9822 -74.9352 101.008 4.5461 0 0 -1.6823 -0.293238 33.0707 7.69 0.6618 -3.9096 102.333 -65.691 129.529 3.2119 0 7.10543e-15 2.86514 2.46823 40.4641 -4.0677 26.6109 -1.1234 5.18887 -2.75036 4.40911 -14.1772 -2.84217e-14 7.10543e-15 61.2818 -12.0249 -21.194 -26.1234 0 7.10543e-15 6.52988 -1.0162 41.6618 -27.7188 0 3.55271e-15 16.9947 5.80546 7.92154 -2.2979 -0.4684 1.8313 28.9717 -12.5625 26.0337 -5.2953 -1.77636e-15 -7.10543e-15 -6.52003 3.93013 -19.6781 -9.3793 0.2991 2.5924 172.29 -87.5295 173.543 -4.3461 3.55271e-15 0 -2.74975 0.656766 -16.1841 -9.4769 0.8376 0.2947 -152.613 -84.4655 -159.317 -4.7721 0 0 -2.53379 0.606744 -29.819 -8.6586 1.0176 -1.7016 -57.047 -81.8419 -72.3761 -4.5461 -3.55271e-15 3.55271e-15 2.51955 -0.55747 -36.7733 -7.69 0.6618 -3.9096 -113.468 -75.8315 -129.94 -3.2119 1.77636e-15 3.55271e-15 -0.876372 1.7882 -40.9636 8.7379 -0.0029 0.0005 14.1258 -21.8151 20.1874 0 -46.6502 1.2741 7.39667 37.4093 -16.35 0 -40.1476 0 -8.17674 -10.3258 7.18951 -8.7379 0.0029 -0.0005 -14.4229 0.428007 -22.6222 -3.55271e-15 -46.6502 1.2741 -5.05973 37.1263 -7.40334 0 -40.1476 -4.44089e-16 21.0819 -23.763 -3.39579 
